<svg width="24" height="28" viewBox="0 0 24 28" fill="none" xmlns="http://www.w3.org/2000/svg">
<path d="M23.1689 10.1405H17.6627C17.5621 9.42814 17.3568 8.79539 17.0467 8.24225C16.7366 7.68073 16.3385 7.20302 15.8524 6.80912C15.3663 6.41522 14.8048 6.11351 14.1678 5.90399C13.5393 5.69447 12.8562 5.58971 12.1187 5.58971C10.7862 5.58971 9.62542 5.92075 8.63648 6.58284C7.64753 7.23655 6.88069 8.19197 6.33593 9.4491C5.79117 10.6978 5.5188 12.2148 5.5188 13.9999C5.5188 15.8353 5.79117 17.3774 6.33593 18.6261C6.88907 19.8749 7.6601 20.8177 8.64905 21.4547C9.63799 22.0916 10.782 22.4101 12.081 22.4101C12.8101 22.4101 13.4848 22.3137 14.105 22.121C14.7336 21.9282 15.2909 21.6474 15.777 21.2787C16.2631 20.9015 16.6653 20.4448 16.9838 19.9084C17.3107 19.372 17.5369 18.7602 17.6627 18.073L23.1689 18.0981C23.0264 19.2798 22.6702 20.4196 22.1003 21.5175C21.5388 22.607 20.7803 23.5834 19.8249 24.4466C18.8779 25.3015 17.7465 25.9803 16.4307 26.4832C15.1233 26.9777 13.644 27.2249 11.993 27.2249C9.69665 27.2249 7.64334 26.7053 5.83308 25.6661C4.03119 24.6268 2.60645 23.1225 1.55884 21.153C0.519613 19.1835 0 16.7991 0 13.9999C0 11.1923 0.527994 8.80377 1.58398 6.83427C2.63997 4.86476 4.0731 3.36459 5.88336 2.33374C7.69363 1.29452 9.73018 0.774902 11.993 0.774902C13.4848 0.774902 14.8676 0.984424 16.1415 1.40347C17.4238 1.82251 18.5594 2.43431 19.5484 3.23887C20.5373 4.03506 21.3419 5.01143 21.962 6.16799C22.5906 7.32455 22.9929 8.64872 23.1689 10.1405Z" fill="url(#paint0_linear_73_436)"/>
<defs>
<linearGradient id="paint0_linear_73_436" x1="11.5844" y1="0.774902" x2="11.5844" y2="27.2249" gradientUnits="userSpaceOnUse">
<stop stop-color="#B933F2"/>
<stop offset="1" stop-color="#393939"/>
</linearGradient>
</defs>
</svg>
