<svg width="26" height="21" viewBox="0 0 26 21" fill="none" xmlns="http://www.w3.org/2000/svg">
<path d="M1.83378 8.08331L1.31753 8.59956L0.802734 8.08331L1.31753 7.56706L1.83378 8.08331ZM25.8963 19.75C25.8963 19.9434 25.8195 20.1288 25.6827 20.2656C25.546 20.4023 25.3605 20.4791 25.1671 20.4791C24.9737 20.4791 24.7883 20.4023 24.6515 20.2656C24.5148 20.1288 24.438 19.9434 24.438 19.75H25.8963ZM8.60919 15.8912L1.31753 8.59956L2.35003 7.56706L9.6417 14.8587L8.60919 15.8912ZM1.31753 7.56706L8.60919 0.275391L9.6417 1.30789L2.35003 8.59956L1.31753 7.56706ZM1.83378 7.35414H16.4171V8.81247H1.83378V7.35414ZM25.8963 16.8333V19.75H24.438V16.8333H25.8963ZM16.4171 7.35414C18.9311 7.35414 21.3422 8.35283 23.1199 10.1305C24.8976 11.9082 25.8963 14.3193 25.8963 16.8333H24.438C24.438 14.706 23.5929 12.6659 22.0887 11.1617C20.5845 9.65752 18.5444 8.81247 16.4171 8.81247V7.35414Z" fill="#393939"/>
</svg>
