<svg width="18" height="18" viewBox="0 0 18 18" fill="none" xmlns="http://www.w3.org/2000/svg">
<path d="M11.4999 14.94C12.2107 15.1462 12.9472 15.2505 13.6874 15.25C14.8778 15.2528 16.0529 14.9814 17.1215 14.4567C17.1237 14.4089 17.1249 14.3608 17.1249 14.3125C17.1249 13.5774 16.8893 12.8617 16.4527 12.2703C16.016 11.6789 15.4013 11.2431 14.6988 11.0269C13.9962 10.8106 13.2428 10.8252 12.5492 11.0686C11.8556 11.312 11.2582 11.7713 10.8449 12.3792M11.4999 14.94V14.9375C11.4999 14.01 11.2624 13.1375 10.8449 12.3792M11.4999 14.94V15.0283C9.89639 15.995 8.0588 16.5039 6.18652 16.5C4.24402 16.5 2.42652 15.9625 0.874857 15.0283L0.874024 14.9375C0.873385 13.7579 1.26537 12.6116 1.98818 11.6794C2.71098 10.7472 3.7235 10.082 4.8661 9.78883C6.00869 9.49564 7.21638 9.59107 8.29874 10.0601C9.38111 10.5291 10.2774 11.345 10.8449 12.3792M8.99986 4.3125C8.99986 5.05842 8.70354 5.77379 8.17609 6.30124C7.64865 6.82868 6.93328 7.125 6.18736 7.125C5.44144 7.125 4.72607 6.82868 4.19862 6.30124C3.67117 5.77379 3.37486 5.05842 3.37486 4.3125C3.37486 3.56658 3.67117 2.85121 4.19862 2.32376C4.72607 1.79632 5.44144 1.5 6.18736 1.5C6.93328 1.5 7.64865 1.79632 8.17609 2.32376C8.70354 2.85121 8.99986 3.56658 8.99986 4.3125ZM15.8749 6.1875C15.8749 6.76766 15.6444 7.32406 15.2342 7.7343C14.8239 8.14453 14.2675 8.375 13.6874 8.375C13.1072 8.375 12.5508 8.14453 12.1406 7.7343C11.7303 7.32406 11.4999 6.76766 11.4999 6.1875C11.4999 5.60734 11.7303 5.05094 12.1406 4.6407C12.5508 4.23047 13.1072 4 13.6874 4C14.2675 4 14.8239 4.23047 15.2342 4.6407C15.6444 5.05094 15.8749 5.60734 15.8749 6.1875Z" stroke="#393939" stroke-width="1.25" stroke-linecap="round" stroke-linejoin="round"/>
</svg>
