<svg width="19" height="18" viewBox="0 0 19 18" fill="none" xmlns="http://www.w3.org/2000/svg">
<path d="M18.4248 16.8833L1.99147 0.441666L0.924805 1.5L5.25814 5.83333L4.9998 6.5H5.9248L7.1748 7.75H1.66647V9H8.4248L11.2498 11.8083C11.1498 12.0083 11.0831 12.2083 11.0331 12.4167C10.2415 12.075 9.50814 12.1667 8.96647 12.4083C8.6248 10.925 7.3248 9.83333 5.78314 9.83333C3.9748 9.83333 2.4998 11.325 2.4998 13.1667C2.4998 15.0083 3.9748 16.5 5.78314 16.5C7.4998 16.5 8.89981 15.15 9.03314 13.4333C9.31647 13.2333 10.0581 12.8583 10.9665 13.45C11.1165 15.1583 12.4998 16.5 14.2165 16.5C14.7165 16.5 15.1831 16.3833 15.5998 16.175L17.3665 17.9417L18.4248 16.8833ZM5.78314 15.55C4.48314 15.55 3.44147 14.4833 3.44147 13.1667C3.44147 11.85 4.49147 10.7833 5.78314 10.7833C7.08314 10.7833 8.1248 11.85 8.1248 13.1667C8.1248 14.4833 7.08314 15.55 5.78314 15.55ZM14.2165 15.55C12.9165 15.55 11.8748 14.4833 11.8748 13.1667C11.8748 12.95 11.9081 12.75 11.9665 12.5417L14.8665 15.4417C14.6581 15.5083 14.4498 15.55 14.2165 15.55ZM18.3331 9H12.6665L11.4165 7.75H18.3331V9ZM14.2165 9.83333C16.0248 9.83333 17.4998 11.325 17.4998 13.1667C17.4998 13.375 17.4748 13.5833 17.4415 13.775L16.5331 12.8667C16.4709 12.3437 16.2351 11.8567 15.8635 11.4836C15.4919 11.1104 15.0058 10.8727 14.4831 10.8083L13.5748 9.90833C13.7831 9.85833 13.9998 9.83333 14.2165 9.83333ZM10.1665 6.5L6.43314 2.75L7.0248 1.23333C7.19147 0.808332 7.65814 0.574999 8.0998 0.699999L8.14147 0.708332L9.9998 1.325L11.8498 0.708332C12.2915 0.566666 12.7665 0.783332 12.9498 1.19167L12.9665 1.23333L14.9998 6.5H10.1665Z" fill="#393939"/>
</svg>
